<svg width="32" height="32" viewBox="0 0 32 32" fill="none" xmlns="http://www.w3.org/2000/svg">
<path d="M21.3333 14.6666V7.99996H23.9999V14.6666H21.3333ZM14.6666 23.8666C13.8888 23.6444 13.2499 23.2111 12.7499 22.5666C12.2499 21.9222 11.9999 21.1777 11.9999 20.3333V7.99996H14.6666V23.8666ZM15.6666 29.3333C13.3555 29.3333 11.3888 28.5222 9.76659 26.9C8.14436 25.2777 7.33325 23.3111 7.33325 21V8.66663C7.33325 6.99996 7.91659 5.58329 9.08325 4.41663C10.2499 3.24996 11.6666 2.66663 13.3333 2.66663C14.9999 2.66663 16.4166 3.24996 17.5833 4.41663C18.7499 5.58329 19.3333 6.99996 19.3333 8.66663V18.6666H16.6666V8.66663C16.6444 7.73329 16.3166 6.9444 15.6833 6.29996C15.0499 5.65551 14.2666 5.33329 13.3333 5.33329C12.3999 5.33329 11.611 5.65551 10.9666 6.29996C10.3221 6.9444 9.99992 7.73329 9.99992 8.66663V21C9.9777 22.5777 10.5221 23.9166 11.6333 25.0166C12.7444 26.1166 14.0888 26.6666 15.6666 26.6666C16.2221 26.6666 16.7499 26.5944 17.2499 26.45C17.7499 26.3055 18.2221 26.0888 18.6666 25.8V28.7666C18.1999 28.9444 17.7166 29.0833 17.2166 29.1833C16.7166 29.2833 16.1999 29.3333 15.6666 29.3333ZM21.3333 28V24H17.3333V21.3333H21.3333V17.3333H23.9999V21.3333H27.9999V24H23.9999V28H21.3333Z" fill="black"/>
</svg>
