<svg width="33" height="32" viewBox="0 0 33 32" fill="none" xmlns="http://www.w3.org/2000/svg">
<path d="M5.53337 26.6666C4.80003 26.6666 4.17225 26.4055 3.65003 25.8833C3.12781 25.361 2.8667 24.7333 2.8667 23.9999V7.99992C2.8667 7.26659 3.12781 6.63881 3.65003 6.11659C4.17225 5.59436 4.80003 5.33325 5.53337 5.33325H13.5334L16.2 7.99992H26.8667C27.6 7.99992 28.2278 8.26103 28.75 8.78325C29.2723 9.30547 29.5334 9.93325 29.5334 10.6666V23.9999C29.5334 24.7333 29.2723 25.361 28.75 25.8833C28.2278 26.4055 27.6 26.6666 26.8667 26.6666H5.53337ZM5.53337 23.9999H26.8667V10.6666H15.1L12.4334 7.99992H5.53337V23.9999Z" fill="black"/>
</svg>
