<svg width="33" height="32" viewBox="0 0 33 32" fill="none" xmlns="http://www.w3.org/2000/svg">
<path d="M1.73315 26.6666V22.9333C1.73315 22.1777 1.9276 21.4833 2.31649 20.8499C2.70538 20.2166 3.22204 19.7333 3.86649 19.3999C5.24427 18.711 6.64427 18.1944 8.06649 17.8499C9.48871 17.5055 10.9332 17.3333 12.3998 17.3333C13.8665 17.3333 15.3109 17.5055 16.7332 17.8499C18.1554 18.1944 19.5554 18.711 20.9332 19.3999C21.5776 19.7333 22.0943 20.2166 22.4832 20.8499C22.872 21.4833 23.0665 22.1777 23.0665 22.9333V26.6666H1.73315ZM25.7332 26.6666V22.6666C25.7332 21.6888 25.4609 20.7499 24.9165 19.8499C24.372 18.9499 23.5998 18.1777 22.5998 17.5333C23.7332 17.6666 24.7998 17.8944 25.7998 18.2166C26.7998 18.5388 27.7332 18.9333 28.5998 19.3999C29.3998 19.8444 30.0109 20.3388 30.4332 20.8833C30.8554 21.4277 31.0665 22.0221 31.0665 22.6666V26.6666H25.7332ZM12.3998 15.9999C10.9332 15.9999 9.6776 15.4777 8.63315 14.4333C7.58871 13.3888 7.06649 12.1333 7.06649 10.6666C7.06649 9.19992 7.58871 7.94436 8.63315 6.89992C9.6776 5.85547 10.9332 5.33325 12.3998 5.33325C13.8665 5.33325 15.122 5.85547 16.1665 6.89992C17.2109 7.94436 17.7332 9.19992 17.7332 10.6666C17.7332 12.1333 17.2109 13.3888 16.1665 14.4333C15.122 15.4777 13.8665 15.9999 12.3998 15.9999ZM25.7332 10.6666C25.7332 12.1333 25.2109 13.3888 24.1665 14.4333C23.122 15.4777 21.8665 15.9999 20.3998 15.9999C20.1554 15.9999 19.8443 15.9721 19.4665 15.9166C19.0887 15.861 18.7776 15.7999 18.5332 15.7333C19.1332 15.0221 19.5943 14.2333 19.9165 13.3666C20.2387 12.4999 20.3998 11.5999 20.3998 10.6666C20.3998 9.73325 20.2387 8.83325 19.9165 7.96659C19.5943 7.09992 19.1332 6.31103 18.5332 5.59992C18.8443 5.48881 19.1554 5.41659 19.4665 5.38325C19.7776 5.34992 20.0887 5.33325 20.3998 5.33325C21.8665 5.33325 23.122 5.85547 24.1665 6.89992C25.2109 7.94436 25.7332 9.19992 25.7332 10.6666ZM4.39982 23.9999H20.3998V22.9333C20.3998 22.6888 20.3387 22.4666 20.2165 22.2666C20.0943 22.0666 19.9332 21.911 19.7332 21.7999C18.5332 21.1999 17.322 20.7499 16.0998 20.4499C14.8776 20.1499 13.6443 19.9999 12.3998 19.9999C11.1554 19.9999 9.92204 20.1499 8.69982 20.4499C7.4776 20.7499 6.26649 21.1999 5.06649 21.7999C4.86649 21.911 4.70538 22.0666 4.58315 22.2666C4.46093 22.4666 4.39982 22.6888 4.39982 22.9333V23.9999ZM12.3998 13.3333C13.1332 13.3333 13.7609 13.0721 14.2832 12.5499C14.8054 12.0277 15.0665 11.3999 15.0665 10.6666C15.0665 9.93325 14.8054 9.30547 14.2832 8.78325C13.7609 8.26103 13.1332 7.99992 12.3998 7.99992C11.6665 7.99992 11.0387 8.26103 10.5165 8.78325C9.99427 9.30547 9.73315 9.93325 9.73315 10.6666C9.73315 11.3999 9.99427 12.0277 10.5165 12.5499C11.0387 13.0721 11.6665 13.3333 12.3998 13.3333Z" fill="black"/>
</svg>
