<svg width="32" height="32" viewBox="0 0 32 32" fill="none" xmlns="http://www.w3.org/2000/svg">
<path d="M15.9999 26.6666C15.2666 26.6666 14.6388 26.4055 14.1166 25.8833C13.5944 25.3611 13.3333 24.7333 13.3333 24C13.3333 23.2666 13.5944 22.6389 14.1166 22.1166C14.6388 21.5944 15.2666 21.3333 15.9999 21.3333C16.7333 21.3333 17.361 21.5944 17.8833 22.1166C18.4055 22.6389 18.6666 23.2666 18.6666 24C18.6666 24.7333 18.4055 25.3611 17.8833 25.8833C17.361 26.4055 16.7333 26.6666 15.9999 26.6666ZM15.9999 18.6666C15.2666 18.6666 14.6388 18.4055 14.1166 17.8833C13.5944 17.3611 13.3333 16.7333 13.3333 16C13.3333 15.2666 13.5944 14.6389 14.1166 14.1166C14.6388 13.5944 15.2666 13.3333 15.9999 13.3333C16.7333 13.3333 17.361 13.5944 17.8833 14.1166C18.4055 14.6389 18.6666 15.2666 18.6666 16C18.6666 16.7333 18.4055 17.3611 17.8833 17.8833C17.361 18.4055 16.7333 18.6666 15.9999 18.6666ZM15.9999 10.6666C15.2666 10.6666 14.6388 10.4055 14.1166 9.88331C13.5944 9.36109 13.3333 8.73331 13.3333 7.99998C13.3333 7.26665 13.5944 6.63887 14.1166 6.11665C14.6388 5.59442 15.2666 5.33331 15.9999 5.33331C16.7333 5.33331 17.361 5.59442 17.8833 6.11665C18.4055 6.63887 18.6666 7.26665 18.6666 7.99998C18.6666 8.73331 18.4055 9.36109 17.8833 9.88331C17.361 10.4055 16.7333 10.6666 15.9999 10.6666Z" fill="black"/>
</svg>
