<svg width="33" height="32" viewBox="0 0 33 32" fill="none" xmlns="http://www.w3.org/2000/svg">
<path d="M6.1333 25.3334V22.6667H8.79997V13.3334C8.79997 11.489 9.35552 9.85008 10.4666 8.41675C11.5777 6.98341 13.0222 6.04453 14.8 5.60008V4.66675C14.8 4.11119 14.9944 3.63897 15.3833 3.25008C15.7722 2.86119 16.2444 2.66675 16.8 2.66675C17.3555 2.66675 17.8277 2.86119 18.2166 3.25008C18.6055 3.63897 18.8 4.11119 18.8 4.66675V5.60008C20.5777 6.04453 22.0222 6.98341 23.1333 8.41675C24.2444 9.85008 24.8 11.489 24.8 13.3334V22.6667H27.4666V25.3334H6.1333ZM16.8 29.3334C16.0666 29.3334 15.4389 29.0723 14.9166 28.5501C14.3944 28.0279 14.1333 27.4001 14.1333 26.6667H19.4666C19.4666 27.4001 19.2055 28.0279 18.6833 28.5501C18.1611 29.0723 17.5333 29.3334 16.8 29.3334ZM11.4666 22.6667H22.1333V13.3334C22.1333 11.8667 21.6111 10.6112 20.5666 9.56675C19.5222 8.5223 18.2666 8.00008 16.8 8.00008C15.3333 8.00008 14.0777 8.5223 13.0333 9.56675C11.9889 10.6112 11.4666 11.8667 11.4666 13.3334V22.6667Z" fill="black"/>
</svg>
