<svg width="33" height="32" viewBox="0 0 33 32" fill="none" xmlns="http://www.w3.org/2000/svg">
<path d="M9.93351 24.0001C9.55573 24.0001 9.23907 23.8723 8.98351 23.6167C8.72796 23.3612 8.60018 23.0445 8.60018 22.6667V20.0001H25.9335V8.00008H28.6002C28.978 8.00008 29.2946 8.12786 29.5502 8.38341C29.8057 8.63897 29.9335 8.95564 29.9335 9.33341V29.3334L24.6002 24.0001H9.93351ZM3.26685 22.6667V4.00008C3.26685 3.6223 3.39462 3.30564 3.65018 3.05008C3.90573 2.79453 4.2224 2.66675 4.60018 2.66675H21.9335C22.3113 2.66675 22.628 2.79453 22.8835 3.05008C23.1391 3.30564 23.2668 3.6223 23.2668 4.00008V16.0001C23.2668 16.3779 23.1391 16.6945 22.8835 16.9501C22.628 17.2056 22.3113 17.3334 21.9335 17.3334H8.60018L3.26685 22.6667ZM20.6002 14.6667V5.33341H5.93351V14.6667H20.6002Z" fill="black"/>
</svg>
