<svg width="32" height="32" viewBox="0 0 32 32" fill="none" xmlns="http://www.w3.org/2000/svg">
<path d="M12.3334 29.3334L11.8001 25.0667C11.5112 24.9556 11.239 24.8223 10.9834 24.6667C10.7279 24.5112 10.4779 24.3445 10.2334 24.1667L6.26676 25.8334L2.6001 19.5001L6.03343 16.9001C6.01121 16.7445 6.0001 16.5945 6.0001 16.4501V15.5501C6.0001 15.4056 6.01121 15.2556 6.03343 15.1001L2.6001 12.5001L6.26676 6.16675L10.2334 7.83341C10.4779 7.65564 10.7334 7.48897 11.0001 7.33341C11.2668 7.17786 11.5334 7.04453 11.8001 6.93341L12.3334 2.66675H19.6668L20.2001 6.93341C20.489 7.04453 20.7612 7.17786 21.0168 7.33341C21.2723 7.48897 21.5223 7.65564 21.7668 7.83341L25.7334 6.16675L29.4001 12.5001L25.9668 15.1001C25.989 15.2556 26.0001 15.4056 26.0001 15.5501V16.4501C26.0001 16.5945 25.9779 16.7445 25.9334 16.9001L29.3668 19.5001L25.7001 25.8334L21.7668 24.1667C21.5223 24.3445 21.2668 24.5112 21.0001 24.6667C20.7334 24.8223 20.4668 24.9556 20.2001 25.0667L19.6668 29.3334H12.3334ZM14.6668 26.6667H17.3001L17.7668 23.1334C18.4557 22.9556 19.0945 22.6945 19.6834 22.3501C20.2723 22.0056 20.8112 21.589 21.3001 21.1001L24.6001 22.4667L25.9001 20.2001L23.0334 18.0334C23.1445 17.7223 23.2223 17.3945 23.2668 17.0501C23.3112 16.7056 23.3334 16.3556 23.3334 16.0001C23.3334 15.6445 23.3112 15.2945 23.2668 14.9501C23.2223 14.6056 23.1445 14.2779 23.0334 13.9667L25.9001 11.8001L24.6001 9.53341L21.3001 10.9334C20.8112 10.4223 20.2723 9.99453 19.6834 9.65008C19.0945 9.30564 18.4557 9.04453 17.7668 8.86675L17.3334 5.33341H14.7001L14.2334 8.86675C13.5445 9.04453 12.9057 9.30564 12.3168 9.65008C11.7279 9.99453 11.189 10.4112 10.7001 10.9001L7.4001 9.53341L6.1001 11.8001L8.96676 13.9334C8.85565 14.2667 8.77788 14.6001 8.73343 14.9334C8.68899 15.2667 8.66676 15.6223 8.66676 16.0001C8.66676 16.3556 8.68899 16.7001 8.73343 17.0334C8.77788 17.3667 8.85565 17.7001 8.96676 18.0334L6.1001 20.2001L7.4001 22.4667L10.7001 21.0667C11.189 21.5779 11.7279 22.0056 12.3168 22.3501C12.9057 22.6945 13.5445 22.9556 14.2334 23.1334L14.6668 26.6667ZM16.0668 20.6667C17.3557 20.6667 18.4557 20.2112 19.3668 19.3001C20.2779 18.389 20.7334 17.289 20.7334 16.0001C20.7334 14.7112 20.2779 13.6112 19.3668 12.7001C18.4557 11.789 17.3557 11.3334 16.0668 11.3334C14.7557 11.3334 13.6501 11.789 12.7501 12.7001C11.8501 13.6112 11.4001 14.7112 11.4001 16.0001C11.4001 17.289 11.8501 18.389 12.7501 19.3001C13.6501 20.2112 14.7557 20.6667 16.0668 20.6667Z" fill="black"/>
</svg>
