<svg width="32" height="32" viewBox="0 0 32 32" fill="none" xmlns="http://www.w3.org/2000/svg">
<path d="M16.0001 29.3334C14.1556 29.3334 12.4223 28.9834 10.8001 28.2834C9.17786 27.5834 7.76675 26.6334 6.56675 25.4334C5.36675 24.2334 4.41675 22.8223 3.71675 21.2001C3.01675 19.5779 2.66675 17.8445 2.66675 16.0001C2.66675 14.1556 3.01675 12.4223 3.71675 10.8001C4.41675 9.17786 5.36675 7.76675 6.56675 6.56675C7.76675 5.36675 9.17786 4.41675 10.8001 3.71675C12.4223 3.01675 14.1556 2.66675 16.0001 2.66675C17.8445 2.66675 19.5779 3.01675 21.2001 3.71675C22.8223 4.41675 24.2334 5.36675 25.4334 6.56675C26.6334 7.76675 27.5834 9.17786 28.2834 10.8001C28.9834 12.4223 29.3334 14.1556 29.3334 16.0001C29.3334 17.8445 28.9834 19.5779 28.2834 21.2001C27.5834 22.8223 26.6334 24.2334 25.4334 25.4334C24.2334 26.6334 22.8223 27.5834 21.2001 28.2834C19.5779 28.9834 17.8445 29.3334 16.0001 29.3334ZM17.3334 26.5667C19.9779 26.2334 22.1945 25.0723 23.9834 23.0834C25.7723 21.0945 26.6667 18.7334 26.6667 16.0001C26.6667 13.2667 25.7723 10.9056 23.9834 8.91675C22.1945 6.92786 19.9779 5.76675 17.3334 5.43341V26.5667Z" fill="black"/>
</svg>
